# xmcd CD database file
# Copyright (C) 1997 Ti Kan
# 
# Track frame offsets:
#     150
#     12967
#     23035
#     34817
#     47507
#     60472
#     71330
#     84992
#     95567
#     109902
#     119387
#     133567
#     143622
#     152877
#     164845
#     178605
#     187647
#     200037
#     213820
#     225442
#     239562
#     249267
#     261670
#     273527
#     283432
#     297227
#     309925
#     322800
#     331227
#     340022
# 
# Disc length: 4748 seconds
# 
# Revision: 1
# Processed by: cddbd v1.4b41PL1 Copyright (c) Steve Scherf et al.
# Submitted via: DiscPlay 4.0.4
# 
DISCID=ae128a1e
DTITLE=Charley Pride - With Love
DYEAR=1900
DGENRE=
TTITLE0=Crystal Chandelier
TTITLE1=Then Who Am I
TTITLE2=It's Gonna Take A Little Bit Longer
TTITLE3=I'd Rather Love You
TTITLE4=She's Too Good To Be True
TTITLE5=Mississippi Cotton Picking Delta Town
TTITLE6=Hope Your Feelin' Me (Like I'm Feelin' You)
TTITLE7=I'm Just Me
TTITLE8=Amazing Love
TTITLE9=Don't Fight The Feeling Of Love
TTITLE10=(I'm So) Afraid of Losing You Again
TTITLE11=Is Anybody Going To San Antone
TTITLE12=Kiss An Angel Good Morning
TTITLE13=My Eyes Can Only See As Far As You
TTITLE14=You Win Again
TTITLE15=Honky Tonk Blues
TTITLE16=More To Me
TTITLE17=All I Have To Offer You (Is Me)
TTITLE18=Wonder Could I Live There Anymore
TTITLE19=I Can't Believe That You've Stopped Loving Me
TTITLE20=Why Baby Why
TTITLE21=Night Games
TTITLE22=She's Just An Old Love Turned Memory
TTITLE23=Someone Loves You Honey
TTITLE24=Never Been So Loved (In All Of My Life)
TTITLE25=Mountain Of Love
TTITLE26=I'll Be Leaving Alone
TTITLE27=The Hardest Part Of Livin's Loving Me
TTITLE28=One More Mile
TTITLE29=Kaw-Liga
EXTD=
EXTT0=
EXTT1=
EXTT2=
EXTT3=
EXTT4=
EXTT5=
EXTT6=
EXTT7=
EXTT8=
EXTT9=
EXTT10=
EXTT11=
EXTT12=
EXTT13=
EXTT14=
EXTT15=
EXTT16=
EXTT17=
EXTT18=
EXTT19=
EXTT20=
EXTT21=
EXTT22=
EXTT23=
EXTT24=
EXTT25=
EXTT26=
EXTT27=
EXTT28=
EXTT29=
PLAYORDER=
